<svg width="110" height="49" viewBox="0 0 110 49" fill="none" xmlns="http://www.w3.org/2000/svg">
<path d="M78.7352 39.5205V33.7109C82.328 32.4878 84.927 28.6657 84.927 24.1557C84.927 19.6456 82.328 15.8235 78.7352 14.6004V8.79082C82.0987 7.64419 84.6213 4.20431 84.8506 0H80.7992V1.75816C80.7992 3.13412 79.9583 4.35719 78.7352 4.89228V4.20431C78.7352 2.98124 77.665 1.98749 76.3655 1.98749H76.1362C74.8367 1.98749 73.7665 2.98124 73.7665 4.20431V5.04517C72.5434 4.43363 71.7026 3.287 71.7026 1.91105V0.152884H67.6511C67.9569 4.28075 70.4031 7.79708 73.7665 8.94371V14.7533C70.1737 15.9764 67.5747 19.7985 67.5747 24.3085C67.5747 28.8186 70.1737 32.6407 73.7665 33.8638V39.6734C70.4031 40.82 67.8805 44.2599 67.6511 48.4642H71.7026V46.706C71.7026 45.3301 72.5434 44.107 73.7665 43.5719V44.4128C73.7665 45.6358 74.8367 46.6296 76.1362 46.6296H76.3655C77.665 46.6296 78.7352 45.6358 78.7352 44.4128V43.5719C79.9583 44.1834 80.7992 45.3301 80.7992 46.706V48.4642H84.8506C84.6213 44.107 82.0987 40.6671 78.7352 39.5205ZM71.7026 26.6782V21.6331C71.7026 20.2571 72.5434 19.034 73.7665 18.499V19.3398C73.7665 20.5629 74.8367 21.5566 76.1362 21.5566H76.3655C77.665 21.5566 78.7352 20.5629 78.7352 19.3398V18.499C79.9583 19.1105 80.7992 20.2571 80.7992 21.6331V26.6782C80.7992 28.0542 79.9583 29.2773 78.7352 29.8124V28.9715C78.7352 27.7484 77.665 26.7547 76.3655 26.7547H76.1362C74.8367 26.7547 73.7665 27.7484 73.7665 28.9715V29.8124C72.5434 29.2773 71.7026 28.0542 71.7026 26.6782Z" fill="#FFC134"/>
<path d="M103.808 27.2133V21.0215C107.401 19.7985 110 15.9764 110 11.4663C110 6.95622 107.401 3.13412 103.808 1.91105V0H98.9159V1.91105C95.3232 3.13412 92.7241 6.95622 92.7241 11.4663C92.7241 15.9764 95.3232 19.7985 98.9159 21.0215V27.2133C95.3232 28.4364 92.7241 32.2585 92.7241 36.7686C92.7241 41.2786 95.3232 45.1007 98.9159 46.3238V48.2349H103.808V46.3238C107.401 45.1007 110 41.2786 110 36.7686C110 32.2585 107.401 28.4364 103.808 27.2133ZM96.852 14.0653V9.02015C96.852 7.64419 97.6929 6.42112 98.9159 5.88603V6.72689C98.9159 7.94996 99.9861 8.94371 101.286 8.94371H101.515C102.814 8.94371 103.885 7.94996 103.885 6.72689V5.88603C105.108 6.49757 105.949 7.64419 105.949 9.02015V14.0653C105.949 15.4413 105.108 16.6643 103.885 17.1994V16.435C103.885 15.2119 102.814 14.2182 101.515 14.2182H101.286C99.9861 14.2182 98.9159 15.2119 98.9159 16.435V17.2759C97.6929 16.6643 96.852 15.4413 96.852 14.0653ZM105.872 39.2912C105.872 40.6671 105.031 41.8902 103.808 42.4253V41.2022C103.808 39.9791 102.738 38.9854 101.439 38.9854H101.209C99.9097 38.9854 98.8395 39.9791 98.8395 41.2022V42.4253C97.6164 41.8137 96.7755 40.6671 96.7755 39.2912V34.246C96.7755 32.87 97.6164 31.647 98.8395 31.1119V31.5705C98.8395 32.7936 99.9097 33.7873 101.209 33.7873H101.439C102.738 33.7873 103.808 32.7936 103.808 31.5705V31.1119C105.031 31.7234 105.872 32.87 105.872 34.246V39.2912Z" fill="#FFC134"/>
<path d="M50.4517 19.2634C50.3752 19.034 50.3752 18.8047 50.2224 18.5754C50.2224 18.499 57.943 8.5615 50.8339 2.44614C43.7248 -3.66921 35.4691 4.28075 35.3926 4.35719C34.0931 3.97498 32.7172 3.74566 31.4176 3.59277C28.7422 3.21056 24.9201 3.59277 24.9201 3.59277C23.6206 3.66922 22.321 3.89854 21.0215 4.28075C20.9451 4.20431 12.6894 -3.74565 5.58026 2.3697C-1.52884 8.48506 6.11536 18.4225 6.1918 18.499C6.11536 18.7283 6.03891 18.9576 5.96247 19.1869C5.19805 23.4677 0 24.7672 0 32.1821C0 39.7498 5.42738 45.7123 16.5879 45.7123H21.1744C21.1744 45.7123 22.9326 48.082 26.6018 48.2349C26.6018 48.2349 27.4427 48.3113 29.3537 48.2349C33.2522 48.2349 35.0868 45.7887 35.0868 45.7123H39.6734C50.8339 45.7123 56.2613 39.7498 56.2613 32.1821C56.4906 24.8436 51.2161 23.4677 50.4517 19.2634Z" fill="#FFC134"/>
</svg>
