<svg width="492" height="91" viewBox="0 0 492 91" fill="none" xmlns="http://www.w3.org/2000/svg">
<path d="M102.896 67.1519V59.5689C107.563 57.968 110.962 52.9969 110.962 47.113C110.962 41.2292 107.563 36.244 102.896 34.6572V27.0742C107.291 25.5716 110.569 21.0639 110.932 15.6154H105.585V17.9324C105.585 19.7158 104.497 21.2886 102.896 22.075V20.9937C102.896 19.4069 101.506 18.1149 99.7993 18.1149H99.5274C97.8205 18.1149 96.4309 19.4069 96.4309 20.9937V22.075C94.8297 21.2886 93.7422 19.7299 93.7422 17.9324V15.6154H88.395C88.7575 21.0639 92.0353 25.5716 96.4309 27.0742V34.6572C91.7785 36.244 88.3647 41.2151 88.3647 47.113C88.3647 53.0109 91.7634 57.982 96.4309 59.5689V67.1519C92.0353 68.6545 88.7575 73.1622 88.395 78.6107H93.7422V76.2937C93.7422 74.5102 94.8297 72.9375 96.4309 72.1511V73.2324C96.4309 74.8192 97.8205 76.1111 99.5274 76.1111H99.7993C101.506 76.1111 102.896 74.8192 102.896 73.2324V72.1511C104.497 72.9375 105.585 74.4962 105.585 76.2937V78.6107H110.932C110.569 73.1622 107.291 68.6545 102.896 67.1519ZM93.7422 50.4271V43.7849C93.7422 42.0015 94.8297 40.4287 96.4309 39.6423V40.7236C96.4309 42.3104 97.8205 43.6024 99.5274 43.6024H99.7993C101.506 43.6024 102.896 42.3104 102.896 40.7236V39.6423C104.497 40.4287 105.585 41.9875 105.585 43.7849V50.4271C105.585 52.2105 104.497 53.7833 102.896 54.5697V53.4884C102.896 51.9016 101.506 50.6097 99.7993 50.6097H99.5274C97.8205 50.6097 96.4309 51.9016 96.4309 53.4884V54.5697C94.8448 53.7833 93.7422 52.2246 93.7422 50.4271Z" fill="#2C1A16"/>
<path d="M135.704 51.1434V43.0689C140.371 41.468 143.77 36.4969 143.77 30.613C143.77 24.7292 140.371 19.744 135.704 18.1572V15.6155H129.254V18.1572C124.587 19.7581 121.188 24.7292 121.188 30.613C121.188 36.4969 124.587 41.482 129.254 43.0689V51.1434C124.587 52.7443 121.188 57.7154 121.188 63.5992C121.188 69.4831 124.587 74.4682 129.254 76.0551V78.5968H135.704V76.0551C140.371 74.4542 143.77 69.4831 143.77 63.5992C143.77 57.7154 140.371 52.7443 135.704 51.1434ZM126.55 33.9271V27.2849C126.55 25.5015 127.638 23.9287 129.239 23.1423V24.2236C129.239 25.8104 130.629 27.1024 132.336 27.1024H132.592C134.299 27.1024 135.689 25.8104 135.689 24.2236V23.1423C137.29 23.9287 138.378 25.4875 138.378 27.2849V33.9271C138.378 35.7105 137.29 37.2833 135.689 38.0697V36.9884C135.689 35.4016 134.299 34.1097 132.592 34.1097H132.32C130.614 34.1097 129.224 35.4016 129.224 36.9884V38.0697C127.653 37.2833 126.55 35.7246 126.55 33.9271ZM138.393 66.9273C138.393 68.7108 137.305 70.2835 135.704 71.0699V69.4831C135.704 67.8963 134.314 66.6044 132.607 66.6044H132.351C130.644 66.6044 129.254 67.8963 129.254 69.4831V71.0699C127.653 70.2835 126.565 68.7248 126.565 66.9273V60.2852C126.565 58.5017 127.653 56.929 129.254 56.1426V56.7183C129.254 58.3051 130.644 59.5971 132.351 59.5971H132.623C134.329 59.5971 135.719 58.3051 135.719 56.7183V56.1426C137.32 56.929 138.408 58.4877 138.408 60.2852V66.9273H138.393Z" fill="#2C1A16"/>
<path d="M65.9338 40.6825C65.8733 40.3595 65.7978 40.0505 65.677 39.7556C65.7223 39.6854 75.7521 26.696 66.4624 18.6636C57.1879 10.6312 46.3576 21.107 46.2971 21.1632C44.5751 20.6576 42.8381 20.3487 41.1161 20.2083C41.1161 20.2083 41.1161 20.2083 41.101 20.2083C37.5664 19.6606 32.6119 20.2083 32.6119 20.2083C30.905 20.3487 29.1831 20.6576 27.4762 21.1491C27.4158 21.0929 16.5854 10.6171 7.31087 18.6495C-1.96366 26.6819 8.05102 39.6854 8.09633 39.7416C7.9906 40.0505 7.89997 40.3595 7.83955 40.6684C6.84261 46.2293 0 47.9425 0 57.6319C0 67.5039 7.14471 75.2836 21.7362 75.2836H27.7179C27.7481 75.3116 30.0592 78.373 34.8324 78.5555C34.8324 78.5555 35.935 78.6678 38.4727 78.5836C43.5329 78.5836 45.995 75.3397 46.0101 75.2976H51.9918C66.5833 75.2976 73.728 67.518 73.728 57.646C73.7733 47.9706 66.9307 46.2433 65.9338 40.6825Z" fill="#2C1A16"/>
<path d="M170.014 72V23H190.454C193.58 23 196.217 23.4667 198.364 24.4C200.51 25.3333 202.12 26.7333 203.194 28.6C204.314 30.42 204.874 32.66 204.874 35.32C204.874 37.98 204.127 40.2433 202.634 42.11C201.187 43.9767 199.157 45.26 196.544 45.96V44.56C198.737 45.0267 200.65 45.8667 202.284 47.08C203.917 48.2467 205.177 49.7167 206.064 51.49C206.997 53.2633 207.464 55.2933 207.464 57.58C207.464 59.9133 207.09 61.99 206.344 63.81C205.644 65.5833 204.57 67.0767 203.124 68.29C201.724 69.5033 200.02 70.4367 198.014 71.09C196.007 71.6967 193.72 72 191.154 72H170.014ZM177.574 64.72H190.734C192.647 64.72 194.257 64.44 195.564 63.88C196.917 63.32 197.944 62.5033 198.644 61.43C199.39 60.31 199.764 58.98 199.764 57.44C199.764 55.9933 199.367 54.7567 198.574 53.73C197.827 52.7033 196.754 51.9333 195.354 51.42C193.954 50.86 192.297 50.58 190.384 50.58H177.574V64.72ZM177.574 43.3H190.034C191.434 43.3 192.67 43.02 193.744 42.46C194.864 41.9 195.727 41.13 196.334 40.15C196.987 39.17 197.314 38.05 197.314 36.79C197.314 34.69 196.614 33.08 195.214 31.96C193.814 30.84 191.807 30.28 189.194 30.28H177.574V43.3ZM230.822 72.7C227.042 72.7 223.682 71.9067 220.742 70.32C217.849 68.6867 215.562 66.47 213.882 63.67C212.249 60.87 211.432 57.65 211.432 54.01C211.432 51.1167 211.899 48.48 212.832 46.1C213.765 43.72 215.049 41.6667 216.682 39.94C218.362 38.1667 220.345 36.8133 222.632 35.88C224.965 34.9 227.485 34.41 230.192 34.41C232.572 34.41 234.789 34.8767 236.842 35.81C238.895 36.6967 240.669 37.9333 242.162 39.52C243.702 41.1067 244.869 42.9967 245.662 45.19C246.502 47.3367 246.899 49.6933 246.852 52.26L246.782 55.34H216.752L215.142 49.6H240.552L239.502 50.79V49.11C239.362 47.57 238.849 46.1933 237.962 44.98C237.075 43.7667 235.955 42.81 234.602 42.11C233.249 41.41 231.779 41.06 230.192 41.06C227.672 41.06 225.549 41.55 223.822 42.53C222.095 43.4633 220.789 44.8633 219.902 46.73C219.015 48.55 218.572 50.8133 218.572 53.52C218.572 56.0867 219.109 58.3267 220.182 60.24C221.255 62.1067 222.772 63.5533 224.732 64.58C226.692 65.6067 228.955 66.12 231.522 66.12C233.342 66.12 235.022 65.8167 236.562 65.21C238.149 64.6033 239.852 63.5067 241.672 61.92L245.312 67.03C244.192 68.15 242.815 69.13 241.182 69.97C239.595 70.81 237.892 71.4867 236.072 72C234.299 72.4667 232.549 72.7 230.822 72.7ZM252.588 72V35.25H259.868V46.8L259.168 44C259.681 42.2267 260.544 40.6167 261.758 39.17C263.018 37.7233 264.441 36.58 266.028 35.74C267.661 34.9 269.341 34.48 271.068 34.48C271.861 34.48 272.608 34.55 273.308 34.69C274.054 34.83 274.638 34.9933 275.058 35.18L273.168 43.02C272.608 42.7867 271.978 42.6 271.278 42.46C270.624 42.2733 269.971 42.18 269.318 42.18C268.058 42.18 266.844 42.4367 265.678 42.95C264.558 43.4167 263.554 44.0933 262.668 44.98C261.828 45.82 261.151 46.8233 260.638 47.99C260.124 49.11 259.868 50.3467 259.868 51.7V72H252.588ZM291.288 72.7C288.254 72.7 285.478 71.86 282.958 70.18C280.484 68.5 278.501 66.2133 277.008 63.32C275.514 60.4267 274.768 57.16 274.768 53.52C274.768 49.8333 275.514 46.5667 277.008 43.72C278.548 40.8267 280.601 38.5633 283.168 36.93C285.781 35.2967 288.698 34.48 291.918 34.48C293.831 34.48 295.581 34.76 297.168 35.32C298.754 35.88 300.131 36.6733 301.298 37.7C302.511 38.68 303.491 39.8233 304.238 41.13C305.031 42.4367 305.521 43.8367 305.708 45.33L304.098 44.77V35.25H311.378V72H304.098V63.25L305.778 62.76C305.498 64.02 304.914 65.2567 304.028 66.47C303.188 67.6367 302.091 68.6867 300.738 69.62C299.431 70.5533 297.961 71.3 296.328 71.86C294.741 72.42 293.061 72.7 291.288 72.7ZM293.178 66.05C295.371 66.05 297.308 65.5133 298.988 64.44C300.668 63.3667 301.974 61.8967 302.908 60.03C303.888 58.1167 304.378 55.9467 304.378 53.52C304.378 51.14 303.888 49.0167 302.908 47.15C301.974 45.2833 300.668 43.8133 298.988 42.74C297.308 41.6667 295.371 41.13 293.178 41.13C291.031 41.13 289.118 41.6667 287.438 42.74C285.804 43.8133 284.498 45.2833 283.518 47.15C282.584 49.0167 282.118 51.14 282.118 53.52C282.118 55.9467 282.584 58.1167 283.518 60.03C284.498 61.8967 285.804 63.3667 287.438 64.44C289.118 65.5133 291.031 66.05 293.178 66.05ZM334.955 72.7C331.548 72.7 328.491 71.86 325.785 70.18C323.125 68.5 321.001 66.2133 319.415 63.32C317.875 60.4267 317.105 57.1833 317.105 53.59C317.105 49.9967 317.875 46.7533 319.415 43.86C321.001 40.9667 323.125 38.68 325.785 37C328.491 35.32 331.548 34.48 334.955 34.48C338.221 34.48 341.185 35.1567 343.845 36.51C346.551 37.8167 348.605 39.6133 350.005 41.9L346.015 46.8C345.268 45.7267 344.311 44.7467 343.145 43.86C341.978 42.9733 340.741 42.2733 339.435 41.76C338.128 41.2467 336.868 40.99 335.655 40.99C333.415 40.99 331.408 41.55 329.635 42.67C327.908 43.7433 326.531 45.2367 325.505 47.15C324.478 49.0633 323.965 51.21 323.965 53.59C323.965 55.97 324.501 58.1167 325.575 60.03C326.648 61.8967 328.071 63.39 329.845 64.51C331.618 65.63 333.578 66.19 335.725 66.19C336.985 66.19 338.198 65.98 339.365 65.56C340.578 65.14 341.745 64.51 342.865 63.67C343.985 62.83 345.035 61.8033 346.015 60.59L350.005 65.49C348.511 67.59 346.365 69.3167 343.565 70.67C340.811 72.0233 337.941 72.7 334.955 72.7ZM354.706 72V20.2H361.916V42.81L360.656 43.65C361.122 42.0167 362.032 40.5233 363.386 39.17C364.739 37.77 366.349 36.65 368.216 35.81C370.082 34.9233 371.996 34.48 373.956 34.48C376.756 34.48 379.089 35.04 380.956 36.16C382.822 37.2333 384.222 38.89 385.156 41.13C386.089 43.37 386.556 46.1933 386.556 49.6V72H379.346V50.09C379.346 47.99 379.066 46.2633 378.506 44.91C377.946 43.51 377.082 42.5067 375.916 41.9C374.749 41.2467 373.302 40.9667 371.576 41.06C370.176 41.06 368.892 41.2933 367.726 41.76C366.559 42.18 365.532 42.7867 364.646 43.58C363.806 44.3733 363.129 45.3067 362.616 46.38C362.149 47.4067 361.916 48.5267 361.916 49.74V72H358.346C357.739 72 357.132 72 356.526 72C355.919 72 355.312 72 354.706 72ZM408.376 72.7C405.343 72.7 402.566 71.86 400.046 70.18C397.573 68.5 395.59 66.2133 394.096 63.32C392.603 60.4267 391.856 57.16 391.856 53.52C391.856 49.8333 392.603 46.5667 394.096 43.72C395.636 40.8267 397.69 38.5633 400.256 36.93C402.87 35.2967 405.786 34.48 409.006 34.48C410.92 34.48 412.67 34.76 414.256 35.32C415.843 35.88 417.22 36.6733 418.386 37.7C419.6 38.68 420.58 39.8233 421.326 41.13C422.12 42.4367 422.61 43.8367 422.796 45.33L421.186 44.77V35.25H428.466V72H421.186V63.25L422.866 62.76C422.586 64.02 422.003 65.2567 421.116 66.47C420.276 67.6367 419.18 68.6867 417.826 69.62C416.52 70.5533 415.05 71.3 413.416 71.86C411.83 72.42 410.15 72.7 408.376 72.7ZM410.266 66.05C412.46 66.05 414.396 65.5133 416.076 64.44C417.756 63.3667 419.063 61.8967 419.996 60.03C420.976 58.1167 421.466 55.9467 421.466 53.52C421.466 51.14 420.976 49.0167 419.996 47.15C419.063 45.2833 417.756 43.8133 416.076 42.74C414.396 41.6667 412.46 41.13 410.266 41.13C408.12 41.13 406.206 41.6667 404.526 42.74C402.893 43.8133 401.586 45.2833 400.606 47.15C399.673 49.0167 399.206 51.14 399.206 53.52C399.206 55.9467 399.673 58.1167 400.606 60.03C401.586 61.8967 402.893 63.3667 404.526 64.44C406.206 65.5133 408.12 66.05 410.266 66.05ZM437.623 72V35.25H444.833V72H437.623ZM441.123 27.13C439.583 27.13 438.393 26.7333 437.553 25.94C436.713 25.1467 436.293 24.0267 436.293 22.58C436.293 21.2267 436.713 20.13 437.553 19.29C438.44 18.45 439.63 18.03 441.123 18.03C442.663 18.03 443.853 18.4267 444.693 19.22C445.533 20.0133 445.953 21.1333 445.953 22.58C445.953 23.9333 445.51 25.03 444.623 25.87C443.783 26.71 442.617 27.13 441.123 27.13ZM453.816 72V35.25H461.026V42.81L459.766 43.65C460.232 42.0167 461.142 40.5233 462.496 39.17C463.849 37.77 465.459 36.65 467.326 35.81C469.192 34.9233 471.106 34.48 473.066 34.48C475.866 34.48 478.199 35.04 480.066 36.16C481.932 37.2333 483.332 38.89 484.266 41.13C485.199 43.37 485.666 46.1933 485.666 49.6V72H478.456V50.09C478.456 47.99 478.176 46.2633 477.616 44.91C477.056 43.51 476.192 42.5067 475.026 41.9C473.859 41.2467 472.412 40.9667 470.686 41.06C469.286 41.06 468.002 41.2933 466.836 41.76C465.669 42.18 464.642 42.7867 463.756 43.58C462.916 44.3733 462.239 45.3067 461.726 46.38C461.259 47.4067 461.026 48.5267 461.026 49.74V72H457.456C456.849 72 456.242 72 455.636 72C455.029 72 454.422 72 453.816 72Z" fill="black"/>
</svg>
