<svg width="16" height="17" viewBox="0 0 16 17" fill="none" xmlns="http://www.w3.org/2000/svg">
<rect y="1" width="16" height="16" rx="4" fill="url(#paint0_radial_339_176)"/>
<g filter="url(#filter0_dd_339_176)">
<path d="M5.07157 6.44792C4.86123 6.44792 4.67142 6.25917 4.67142 6.05042C4.67142 5.56917 5.89323 5.21292 7.28347 5.21292C7.40958 5.21292 7.4938 5.21292 7.4938 5.10875C7.4938 4.92042 7.07271 4.85792 7.07271 4.54417C7.07271 4.20917 7.47285 4 7.97859 4C8.48433 4 8.8849 4.20917 8.8849 4.54417C8.8849 4.85792 8.46338 4.89958 8.46338 5.10875C8.46338 5.17167 8.52665 5.21333 8.67371 5.21333C10.064 5.21333 11.3071 5.54792 11.3071 6.05042C11.3076 6.10214 11.2977 6.15345 11.2778 6.20142C11.2579 6.24938 11.2286 6.29306 11.1914 6.32994C11.1541 6.36683 11.1098 6.39619 11.061 6.41637C11.0121 6.43654 10.9596 6.44712 10.9066 6.4475H5.07199L5.07157 6.44792ZM11.3695 8.35125C11.8753 8.665 12.0647 9.23 11.9809 9.75333L11.3909 12.9117C11.2644 13.5404 10.7163 14 10.0631 14H5.93512C5.28275 14 4.73469 13.54 4.60815 12.9121L4.0182 9.75333C3.97412 9.48806 4.01052 9.21601 4.12293 8.97062C4.23533 8.72524 4.41884 8.5172 4.6509 8.37208C4.94588 8.16333 5.0083 7.8075 4.6509 7.68208C4.14474 7.49375 4.2499 6.88708 4.75564 6.88708H7.83067C8.31503 6.88708 8.90542 7.2425 8.90542 8.39333C8.90542 9.54417 8.35736 9.43917 8.35736 10.255C8.35736 10.6108 8.65233 10.9875 9.01016 11.0296C9.62149 11.0921 9.97931 10.8621 9.97931 10.0254C9.97931 9.16708 9.474 8.77 9.474 8.05875C9.474 7.20083 10.0212 6.86583 10.3794 6.86583H11.2644C11.7697 6.86583 11.8757 7.47292 11.3695 7.66125C11.0117 7.80708 11.0746 8.16333 11.3695 8.35125Z" fill="white"/>
<path d="M5.07157 6.44792C4.86123 6.44792 4.67142 6.25917 4.67142 6.05042C4.67142 5.56917 5.89323 5.21292 7.28347 5.21292C7.40958 5.21292 7.4938 5.21292 7.4938 5.10875C7.4938 4.92042 7.07271 4.85792 7.07271 4.54417C7.07271 4.20917 7.47285 4 7.97859 4C8.48433 4 8.8849 4.20917 8.8849 4.54417C8.8849 4.85792 8.46338 4.89958 8.46338 5.10875C8.46338 5.17167 8.52665 5.21333 8.67371 5.21333C10.064 5.21333 11.3071 5.54792 11.3071 6.05042C11.3076 6.10214 11.2977 6.15345 11.2778 6.20142C11.2579 6.24938 11.2286 6.29306 11.1914 6.32994C11.1541 6.36683 11.1098 6.39619 11.061 6.41637C11.0121 6.43654 10.9596 6.44712 10.9066 6.4475H5.07199L5.07157 6.44792ZM11.3695 8.35125C11.8753 8.665 12.0647 9.23 11.9809 9.75333L11.3909 12.9117C11.2644 13.5404 10.7163 14 10.0631 14H5.93512C5.28275 14 4.73469 13.54 4.60815 12.9121L4.0182 9.75333C3.97412 9.48806 4.01052 9.21601 4.12293 8.97062C4.23533 8.72524 4.41884 8.5172 4.6509 8.37208C4.94588 8.16333 5.0083 7.8075 4.6509 7.68208C4.14474 7.49375 4.2499 6.88708 4.75564 6.88708H7.83067C8.31503 6.88708 8.90542 7.2425 8.90542 8.39333C8.90542 9.54417 8.35736 9.43917 8.35736 10.255C8.35736 10.6108 8.65233 10.9875 9.01016 11.0296C9.62149 11.0921 9.97931 10.8621 9.97931 10.0254C9.97931 9.16708 9.474 8.77 9.474 8.05875C9.474 7.20083 10.0212 6.86583 10.3794 6.86583H11.2644C11.7697 6.86583 11.8757 7.47292 11.3695 7.66125C11.0117 7.80708 11.0746 8.16333 11.3695 8.35125Z" fill="white"/>
</g>
<defs>
<filter id="filter0_dd_339_176" x="1.6" y="0.4" width="12.8" height="14.8" filterUnits="userSpaceOnUse" color-interpolation-filters="sRGB">
<feFlood flood-opacity="0" result="BackgroundImageFix"/>
<feColorMatrix in="SourceAlpha" type="matrix" values="0 0 0 0 0 0 0 0 0 0 0 0 0 0 0 0 0 0 127 0" result="hardAlpha"/>
<feOffset dy="0.3"/>
<feGaussianBlur stdDeviation="0.3"/>
<feComposite in2="hardAlpha" operator="out"/>
<feColorMatrix type="matrix" values="0 0 0 0 0 0 0 0 0 0 0 0 0 0 0 0 0 0 0.45 0"/>
<feBlend mode="normal" in2="BackgroundImageFix" result="effect1_dropShadow_339_176"/>
<feColorMatrix in="SourceAlpha" type="matrix" values="0 0 0 0 0 0 0 0 0 0 0 0 0 0 0 0 0 0 127 0" result="hardAlpha"/>
<feOffset dy="-1.2"/>
<feGaussianBlur stdDeviation="1.2"/>
<feComposite in2="hardAlpha" operator="out"/>
<feColorMatrix type="matrix" values="0 0 0 0 0.454902 0 0 0 0 0.392157 0 0 0 0 0.898039 0 0 0 0.75 0"/>
<feBlend mode="normal" in2="effect1_dropShadow_339_176" result="effect2_dropShadow_339_176"/>
<feBlend mode="normal" in="SourceGraphic" in2="effect2_dropShadow_339_176" result="shape"/>
</filter>
<radialGradient id="paint0_radial_339_176" cx="0" cy="0" r="1" gradientUnits="userSpaceOnUse" gradientTransform="translate(8 9) rotate(90) scale(8)">
<stop stop-color="#C7C2EB"/>
<stop offset="1" stop-color="#7464E5"/>
</radialGradient>
</defs>
</svg>
